<?xml version="1.0" encoding="utf-8"?>
<svg width="1047px" height="1047px" viewBox="0 0 1047 1047" version="1.1" xmlns:xlink="http://www.w3.org/1999/xlink" xmlns="http://www.w3.org/2000/svg">
  <defs>
    <filter id="filter_1">
      <feColorMatrix in="SourceGraphic" type="matrix" values="0 0 0 0 0.17254902 0 0 0 0 0.17254902 0 0 0 0 0.32941177 0 0 0 1 0" />
    </filter>
    <path d="M0 0L1047 0L1047 1047L0 1047L0 0Z" id="path_1" />
    <clipPath id="mask_1">
      <use xlink:href="#path_1" />
    </clipPath>
  </defs>
  <g id="icons8-kubernetes" filter="url(#filter_1)">
    <path d="M0 0L1047 0L1047 1047L0 1047L0 0Z" id="Background" fill="none" fill-rule="evenodd" stroke="none" />
    <g clip-path="url(#mask_1)">
      <path d="M83.7986 26.3495C86.0235 29.207 86.9614 33.3295 86.3288 37.1467L80.3086 63.4963C79.6761 67.6188 76.8186 70.8034 73.3504 72.7012L48.9641 84.1309C45.474 86.0286 41.0461 86.0286 37.5561 84.1309L13.1697 72.7012C9.67972 70.8035 6.84407 67.6189 6.21152 63.4963L0.191295 37.1467C-0.441252 33.3296 0.51847 29.207 2.72153 26.3495L19.8225 5.08231C22.0256 1.89769 25.8428 0 29.9436 0L56.5548 0C60.6773 0 64.4727 1.89769 66.6976 5.08231L83.7986 26.3495L83.7986 26.3495Z" transform="translate(480.59988 501.6875)" id="Shape" fill="#0277BD" fill-rule="evenodd" stroke="none" />
      <path d="M485.899 268.953L486.946 277.133C489.869 299.753 491.963 322.612 494.057 345.232C494.886 354.24 495.737 363.053 496.347 372.061C496.762 378.976 504.505 382.531 510.155 378.561C517.266 373.326 524.595 368.091 532.12 363.053C550.944 350.27 569.55 337.488 588.789 325.121L595.9 320.715C565.995 293.471 527.932 274.821 485.899 268.953L485.899 268.953ZM485.899 268.953L486.946 277.133C489.869 299.753 491.963 322.612 494.057 345.232C494.886 354.24 495.737 363.053 496.347 372.061C496.762 378.976 504.505 382.531 510.155 378.561C517.266 373.326 524.595 368.091 532.12 363.053C550.944 350.27 569.55 337.488 588.789 325.121L595.9 320.715C565.995 293.471 527.932 274.821 485.899 268.953L485.899 268.953ZM485.899 268.953L486.946 277.133C489.869 299.753 491.963 322.612 494.057 345.232C494.886 354.24 495.737 363.053 496.347 372.061C496.762 378.976 504.505 382.531 510.155 378.561C517.266 373.326 524.595 368.091 532.12 363.053C550.944 350.27 569.55 337.488 588.789 325.121L595.9 320.715C565.995 293.471 527.932 274.821 485.899 268.953L485.899 268.953ZM485.899 268.953L486.946 277.133C489.869 299.753 491.963 322.612 494.057 345.232C494.886 354.24 495.737 363.053 496.347 372.061C496.762 378.976 504.505 382.531 510.155 378.561C517.266 373.326 524.595 368.091 532.12 363.053C550.944 350.27 569.55 337.488 588.789 325.121L595.9 320.715C565.995 293.471 527.932 274.821 485.899 268.953L485.899 268.953ZM485.899 268.953L486.946 277.133C489.869 299.753 491.963 322.612 494.057 345.232C494.886 354.24 495.737 363.053 496.347 372.061C496.762 378.976 504.505 382.531 510.155 378.561C517.266 373.326 524.595 368.091 532.12 363.053C550.944 350.27 569.55 337.488 588.789 325.121L595.9 320.715C565.995 293.471 527.932 274.821 485.899 268.953L485.899 268.953ZM634.377 367.219L628.727 373.305C613.044 390.078 596.947 406.198 580.827 422.339C570.575 432.809 559.494 442.865 548.828 453.138C563.05 456.694 577.272 460.467 591.493 464.655C613.459 470.937 635.206 477.023 656.953 484.134L664.696 486.642C664.914 483.283 664.914 479.728 664.914 476.172C664.914 436.168 653.834 398.869 634.377 367.219L634.377 367.219ZM634.377 367.219L628.727 373.305C613.044 390.078 596.947 406.198 580.827 422.339C570.575 432.809 559.494 442.865 548.828 453.138C563.05 456.694 577.272 460.467 591.493 464.655C613.459 470.937 635.206 477.023 656.953 484.134L664.696 486.642C664.914 483.283 664.914 479.728 664.914 476.172C664.914 436.168 653.834 398.869 634.377 367.219L634.377 367.219ZM485.899 268.953L486.946 277.133C489.869 299.753 491.963 322.612 494.057 345.232C494.886 354.24 495.737 363.053 496.347 372.061C496.762 378.976 504.505 382.531 510.155 378.561C517.266 373.326 524.595 368.091 532.12 363.053C550.944 350.27 569.55 337.488 588.789 325.121L595.9 320.715C565.995 293.471 527.932 274.821 485.899 268.953L485.899 268.953ZM485.899 268.953L486.946 277.133C489.869 299.753 491.963 322.612 494.057 345.232C494.886 354.24 495.737 363.053 496.347 372.061C496.762 378.976 504.505 382.531 510.155 378.561C517.266 373.326 524.595 368.091 532.12 363.053C550.944 350.27 569.55 337.488 588.789 325.121L595.9 320.715C565.995 293.471 527.932 274.821 485.899 268.953L485.899 268.953ZM645.457 545.754C622.663 544.293 600.066 542.199 577.271 540.105C567.434 539.276 557.815 538.229 547.999 537.16C541.717 536.331 536.7 542.613 539.012 548.677C542.568 558.1 545.905 567.545 549.264 577.186C556.593 598.562 564.119 620.135 571.011 641.926L573.302 649.473C609.685 624.541 637.932 588.507 652.765 546.169L645.457 545.754L645.457 545.754ZM634.377 367.219L628.727 373.305C613.044 390.078 596.947 406.198 580.827 422.339C570.575 432.809 559.494 442.865 548.828 453.138C563.05 456.694 577.272 460.467 591.493 464.655C613.459 470.937 635.206 477.023 656.953 484.134L664.696 486.642C664.914 483.283 664.914 479.728 664.914 476.172C664.914 436.168 653.834 398.869 634.377 367.219L634.377 367.219ZM634.377 367.219L628.727 373.305C613.044 390.078 596.947 406.198 580.827 422.339C570.575 432.809 559.494 442.865 548.828 453.138C563.05 456.694 577.272 460.467 591.493 464.655C613.459 470.937 635.206 477.023 656.953 484.134L664.696 486.642C664.914 483.283 664.914 479.728 664.914 476.172C664.914 436.168 653.834 398.869 634.377 367.219L634.377 367.219ZM645.457 545.754C622.663 544.293 600.066 542.199 577.271 540.105C567.434 539.276 557.815 538.229 547.999 537.16C541.717 536.331 536.7 542.613 539.012 548.677C542.568 558.1 545.905 567.545 549.264 577.186C556.593 598.562 564.119 620.135 571.011 641.926L573.302 649.473C609.685 624.541 637.932 588.507 652.765 546.169L645.457 545.754L645.457 545.754ZM485.899 268.953L486.946 277.133C489.869 299.753 491.963 322.612 494.057 345.232C494.886 354.24 495.737 363.053 496.347 372.061C496.762 378.976 504.505 382.531 510.155 378.561C517.266 373.326 524.595 368.091 532.12 363.053C550.944 350.27 569.55 337.488 588.789 325.121L595.9 320.715C565.995 293.471 527.932 274.821 485.899 268.953L485.899 268.953ZM485.899 268.953L486.946 277.133C489.869 299.753 491.963 322.612 494.057 345.232C494.886 354.24 495.737 363.053 496.347 372.061C496.762 378.976 504.505 382.531 510.155 378.561C517.266 373.326 524.595 368.091 532.12 363.053C550.944 350.27 569.55 337.488 588.789 325.121L595.9 320.715C565.995 293.471 527.932 274.821 485.899 268.953L485.899 268.953ZM645.457 545.754C622.663 544.293 600.066 542.199 577.271 540.105C567.434 539.276 557.815 538.229 547.999 537.16C541.717 536.331 536.7 542.613 539.012 548.677C542.568 558.1 545.905 567.545 549.264 577.186C556.593 598.562 564.119 620.135 571.011 641.926L573.302 649.473C609.685 624.541 637.932 588.507 652.765 546.169L645.457 545.754L645.457 545.754ZM634.377 367.219L628.727 373.305C613.044 390.078 596.947 406.198 580.827 422.339C570.575 432.809 559.494 442.865 548.828 453.138C563.05 456.694 577.272 460.467 591.493 464.655C613.459 470.937 635.206 477.023 656.953 484.134L664.696 486.642C664.914 483.283 664.914 479.728 664.914 476.172C664.914 436.168 653.834 398.869 634.377 367.219L634.377 367.219ZM634.377 367.219L628.727 373.305C613.044 390.078 596.947 406.198 580.827 422.339C570.575 432.809 559.494 442.865 548.828 453.138C563.05 456.694 577.272 460.467 591.493 464.655C613.459 470.937 635.206 477.023 656.953 484.134L664.696 486.642C664.914 483.283 664.914 479.728 664.914 476.172C664.914 436.168 653.834 398.869 634.377 367.219L634.377 367.219ZM645.457 545.754C622.663 544.293 600.066 542.199 577.271 540.105C567.434 539.276 557.815 538.229 547.999 537.16C541.717 536.331 536.7 542.613 539.012 548.677C542.568 558.1 545.905 567.545 549.264 577.186C556.593 598.562 564.119 620.135 571.011 641.926L573.302 649.473C609.685 624.541 637.932 588.507 652.765 546.169L645.457 545.754L645.457 545.754ZM485.899 268.953L486.946 277.133C489.869 299.753 491.963 322.612 494.057 345.232C494.886 354.24 495.737 363.053 496.347 372.061C496.762 378.976 504.505 382.531 510.155 378.561C517.266 373.326 524.595 368.091 532.12 363.053C550.944 350.27 569.55 337.488 588.789 325.121L595.9 320.715C565.995 293.471 527.932 274.821 485.899 268.953L485.899 268.953ZM514.125 667.904C501.997 648.622 490.698 628.729 479.399 609.032C474.382 600.438 469.562 591.844 464.959 583.054C461.622 576.968 453.028 576.968 449.69 583.054C444.87 592.062 439.853 600.874 434.64 609.447C423.144 629.143 411.627 648.84 399.5 668.122L394.265 676.498C413.721 682.584 434.422 685.725 455.754 685.725C477.719 685.725 499.052 682.366 518.923 675.866L514.125 667.904L514.125 667.904ZM485.899 268.953L486.946 277.133C489.869 299.753 491.963 322.612 494.057 345.232C494.886 354.24 495.737 363.053 496.347 372.061C496.762 378.976 504.505 382.531 510.155 378.561C517.266 373.326 524.595 368.091 532.12 363.053C550.944 350.27 569.55 337.488 588.789 325.121L595.9 320.715C565.995 293.471 527.932 274.821 485.899 268.953L485.899 268.953ZM645.457 545.754C622.663 544.293 600.066 542.199 577.271 540.105C567.434 539.276 557.815 538.229 547.999 537.16C541.717 536.331 536.7 542.613 539.012 548.677C542.568 558.1 545.905 567.545 549.264 577.186C556.593 598.562 564.119 620.135 571.011 641.926L573.302 649.473C609.685 624.541 637.932 588.507 652.765 546.169L645.457 545.754L645.457 545.754ZM634.377 367.219L628.727 373.305C613.044 390.078 596.947 406.198 580.827 422.339C570.575 432.809 559.494 442.865 548.828 453.138C563.05 456.694 577.272 460.467 591.493 464.655C613.459 470.937 635.206 477.023 656.953 484.134L664.696 486.642C664.914 483.283 664.914 479.728 664.914 476.172C664.914 436.168 653.834 398.869 634.377 367.219L634.377 367.219ZM634.377 367.219L628.727 373.305C613.044 390.078 596.947 406.198 580.827 422.339C570.575 432.809 559.494 442.865 548.828 453.138C563.05 456.694 577.272 460.467 591.493 464.655C613.459 470.937 635.206 477.023 656.953 484.134L664.696 486.642C664.914 483.283 664.914 479.728 664.914 476.172C664.914 436.168 653.834 398.869 634.377 367.219L634.377 367.219ZM645.457 545.754C622.663 544.293 600.066 542.199 577.271 540.105C567.434 539.276 557.815 538.229 547.999 537.16C541.717 536.331 536.7 542.613 539.012 548.677C542.568 558.1 545.905 567.545 549.264 577.186C556.593 598.562 564.119 620.135 571.011 641.926L573.302 649.473C609.685 624.541 637.932 588.507 652.765 546.169L645.457 545.754L645.457 545.754ZM485.899 268.953L486.946 277.133C489.869 299.753 491.963 322.612 494.057 345.232C494.886 354.24 495.737 363.053 496.347 372.061C496.762 378.976 504.505 382.531 510.155 378.561C517.266 373.326 524.595 368.091 532.12 363.053C550.944 350.27 569.55 337.488 588.789 325.121L595.9 320.715C565.995 293.471 527.932 274.821 485.899 268.953L485.899 268.953ZM514.125 667.904C501.997 648.622 490.698 628.729 479.399 609.032C474.382 600.438 469.562 591.844 464.959 583.054C461.622 576.968 453.028 576.968 449.69 583.054C444.87 592.062 439.853 600.874 434.64 609.447C423.144 629.143 411.627 648.84 399.5 668.122L394.265 676.498C413.721 682.584 434.422 685.725 455.754 685.725C477.719 685.725 499.052 682.366 518.923 675.866L514.125 667.904L514.125 667.904ZM367.304 534.237C357.467 535.502 347.848 536.964 338.032 538.011C315.238 540.737 292.858 543.464 270.064 545.558L258.766 546.605C274.034 589.357 302.892 625.806 339.908 650.541L342.831 641.729C349.942 619.938 357.467 598.562 365.211 576.99C368.766 566.52 372.54 556.246 376.509 545.776C379.018 539.668 373.783 533.19 367.304 534.237L367.304 534.237ZM514.125 667.904C501.997 648.622 490.698 628.729 479.399 609.032C474.382 600.438 469.562 591.844 464.959 583.054C461.622 576.968 453.028 576.968 449.69 583.054C444.87 592.062 439.853 600.874 434.64 609.447C423.144 629.143 411.627 648.84 399.5 668.122L394.265 676.498C413.721 682.584 434.422 685.725 455.754 685.725C477.719 685.725 499.052 682.366 518.923 675.866L514.125 667.904L514.125 667.904ZM485.899 268.953L486.946 277.133C489.869 299.753 491.963 322.612 494.057 345.232C494.886 354.24 495.737 363.053 496.347 372.061C496.762 378.976 504.505 382.531 510.155 378.561C517.266 373.326 524.595 368.091 532.12 363.053C550.944 350.27 569.55 337.488 588.789 325.121L595.9 320.715C565.995 293.471 527.932 274.821 485.899 268.953L485.899 268.953ZM645.457 545.754C622.663 544.293 600.066 542.199 577.271 540.105C567.434 539.276 557.815 538.229 547.999 537.16C541.717 536.331 536.7 542.613 539.012 548.677C542.568 558.1 545.905 567.545 549.264 577.186C556.593 598.562 564.119 620.135 571.011 641.926L573.302 649.473C609.685 624.541 637.932 588.507 652.765 546.169L645.457 545.754L645.457 545.754ZM634.377 367.219L628.727 373.305C613.044 390.078 596.947 406.198 580.827 422.339C570.575 432.809 559.494 442.865 548.828 453.138C563.05 456.694 577.272 460.467 591.493 464.655C613.459 470.937 635.206 477.023 656.953 484.134L664.696 486.642C664.914 483.283 664.914 479.728 664.914 476.172C664.914 436.168 653.834 398.869 634.377 367.219L634.377 367.219ZM634.377 367.219L628.727 373.305C613.044 390.078 596.947 406.198 580.827 422.339C570.575 432.809 559.494 442.865 548.828 453.138C563.05 456.694 577.272 460.467 591.493 464.655C613.459 470.937 635.206 477.023 656.953 484.134L664.696 486.642C664.914 483.283 664.914 479.728 664.914 476.172C664.914 436.168 653.834 398.869 634.377 367.219L634.377 367.219ZM645.457 545.754C622.663 544.293 600.066 542.199 577.271 540.105C567.434 539.276 557.815 538.229 547.999 537.16C541.717 536.331 536.7 542.613 539.012 548.677C542.568 558.1 545.905 567.545 549.264 577.186C556.593 598.562 564.119 620.135 571.011 641.926L573.302 649.473C609.685 624.541 637.932 588.507 652.765 546.169L645.457 545.754L645.457 545.754ZM485.899 268.953L486.946 277.133C489.869 299.753 491.963 322.612 494.057 345.232C494.886 354.24 495.737 363.053 496.347 372.061C496.762 378.976 504.505 382.531 510.155 378.561C517.266 373.326 524.595 368.091 532.12 363.053C550.944 350.27 569.55 337.488 588.789 325.121L595.9 320.715C565.995 293.471 527.932 274.821 485.899 268.953L485.899 268.953ZM514.125 667.904C501.997 648.622 490.698 628.729 479.399 609.032C474.382 600.438 469.562 591.844 464.959 583.054C461.622 576.968 453.028 576.968 449.69 583.054C444.87 592.062 439.853 600.874 434.64 609.447C423.144 629.143 411.627 648.84 399.5 668.122L394.265 676.498C413.721 682.584 434.422 685.725 455.754 685.725C477.719 685.725 499.052 682.366 518.923 675.866L514.125 667.904L514.125 667.904ZM367.304 534.237C357.467 535.502 347.848 536.964 338.032 538.011C315.238 540.737 292.858 543.464 270.064 545.558L258.766 546.605C274.034 589.357 302.892 625.806 339.908 650.541L342.831 641.729C349.942 619.938 357.467 598.562 365.211 576.99C368.766 566.52 372.54 556.246 376.509 545.776C379.018 539.668 373.783 533.19 367.304 534.237L367.304 534.237ZM367.304 534.237C357.467 535.502 347.848 536.964 338.032 538.011C315.238 540.737 292.858 543.464 270.064 545.558L258.766 546.605C274.034 589.357 302.892 625.806 339.908 650.541L342.831 641.729C349.942 619.938 357.467 598.562 365.211 576.99C368.766 566.52 372.54 556.246 376.509 545.776C379.018 539.668 373.783 533.19 367.304 534.237L367.304 534.237ZM514.125 667.904C501.997 648.622 490.698 628.729 479.399 609.032C474.382 600.438 469.562 591.844 464.959 583.054C461.622 576.968 453.028 576.968 449.69 583.054C444.87 592.062 439.853 600.874 434.64 609.447C423.144 629.143 411.627 648.84 399.5 668.122L394.265 676.498C413.721 682.584 434.422 685.725 455.754 685.725C477.719 685.725 499.052 682.366 518.923 675.866L514.125 667.904L514.125 667.904ZM485.899 268.953L486.946 277.133C489.869 299.753 491.963 322.612 494.057 345.232C494.886 354.24 495.737 363.053 496.347 372.061C496.762 378.976 504.505 382.531 510.155 378.561C517.266 373.326 524.595 368.091 532.12 363.053C550.944 350.27 569.55 337.488 588.789 325.121L595.9 320.715C565.995 293.471 527.932 274.821 485.899 268.953L485.899 268.953ZM645.457 545.754C622.663 544.293 600.066 542.199 577.271 540.105C567.434 539.276 557.815 538.229 547.999 537.16C541.717 536.331 536.7 542.613 539.012 548.677C542.568 558.1 545.905 567.545 549.264 577.186C556.593 598.562 564.119 620.135 571.011 641.926L573.302 649.473C609.685 624.541 637.932 588.507 652.765 546.169L645.457 545.754L645.457 545.754ZM634.377 367.219L628.727 373.305C613.044 390.078 596.947 406.198 580.827 422.339C570.575 432.809 559.494 442.865 548.828 453.138C563.05 456.694 577.272 460.467 591.493 464.655C613.459 470.937 635.206 477.023 656.953 484.134L664.696 486.642C664.914 483.283 664.914 479.728 664.914 476.172C664.914 436.168 653.834 398.869 634.377 367.219L634.377 367.219ZM634.377 367.219L628.727 373.305C613.044 390.078 596.947 406.198 580.827 422.339C570.575 432.809 559.494 442.865 548.828 453.138C563.05 456.694 577.272 460.467 591.493 464.655C613.459 470.937 635.206 477.023 656.953 484.134L664.696 486.642C664.914 483.283 664.914 479.728 664.914 476.172C664.914 436.168 653.834 398.869 634.377 367.219L634.377 367.219ZM645.457 545.754C622.663 544.293 600.066 542.199 577.271 540.105C567.434 539.276 557.815 538.229 547.999 537.16C541.717 536.331 536.7 542.613 539.012 548.677C542.568 558.1 545.905 567.545 549.264 577.186C556.593 598.562 564.119 620.135 571.011 641.926L573.302 649.473C609.685 624.541 637.932 588.507 652.765 546.169L645.457 545.754L645.457 545.754ZM485.899 268.953L486.946 277.133C489.869 299.753 491.963 322.612 494.057 345.232C494.886 354.24 495.737 363.053 496.347 372.061C496.762 378.976 504.505 382.531 510.155 378.561C517.266 373.326 524.595 368.091 532.12 363.053C550.944 350.27 569.55 337.488 588.789 325.121L595.9 320.715C565.995 293.471 527.932 274.821 485.899 268.953L485.899 268.953ZM514.125 667.904C501.997 648.622 490.698 628.729 479.399 609.032C474.382 600.438 469.562 591.844 464.959 583.054C461.622 576.968 453.028 576.968 449.69 583.054C444.87 592.062 439.853 600.874 434.64 609.447C423.144 629.143 411.627 648.84 399.5 668.122L394.265 676.498C413.721 682.584 434.422 685.725 455.754 685.725C477.719 685.725 499.052 682.366 518.923 675.866L514.125 667.904L514.125 667.904ZM367.304 534.237C357.467 535.502 347.848 536.964 338.032 538.011C315.238 540.737 292.858 543.464 270.064 545.558L258.766 546.605C274.034 589.357 302.892 625.806 339.908 650.541L342.831 641.729C349.942 619.938 357.467 598.562 365.211 576.99C368.766 566.52 372.54 556.246 376.509 545.776C379.018 539.668 373.783 533.19 367.304 534.237L367.304 534.237ZM355.591 438.677C348.48 432.177 341.588 425.676 334.673 418.762C318.357 402.621 302.26 386.697 286.358 370.142L279.662 363.227C258.744 395.706 246.616 434.467 246.616 476.172C246.616 480.164 246.834 483.916 246.834 487.689L256.672 484.33C278.222 476.587 299.969 469.869 321.498 462.758C331.75 459.399 342.002 456.476 352.232 453.335C358.732 451.459 360.608 443.279 355.591 438.677L355.591 438.677ZM367.304 534.237C357.467 535.502 347.848 536.964 338.032 538.011C315.238 540.737 292.858 543.464 270.064 545.558L258.766 546.605C274.034 589.357 302.892 625.806 339.908 650.541L342.831 641.729C349.942 619.938 357.467 598.562 365.211 576.99C368.766 566.52 372.54 556.246 376.509 545.776C379.018 539.668 373.783 533.19 367.304 534.237L367.304 534.237ZM514.125 667.904C501.997 648.622 490.698 628.729 479.399 609.032C474.382 600.438 469.562 591.844 464.959 583.054C461.622 576.968 453.028 576.968 449.69 583.054C444.87 592.062 439.853 600.874 434.64 609.447C423.144 629.143 411.627 648.84 399.5 668.122L394.265 676.498C413.721 682.584 434.422 685.725 455.754 685.725C477.719 685.725 499.052 682.366 518.923 675.866L514.125 667.904L514.125 667.904ZM485.899 268.953L486.946 277.133C489.869 299.753 491.963 322.612 494.057 345.232C494.886 354.24 495.737 363.053 496.347 372.061C496.762 378.976 504.505 382.531 510.155 378.561C517.266 373.326 524.595 368.091 532.12 363.053C550.944 350.27 569.55 337.488 588.789 325.121L595.9 320.715C565.995 293.471 527.932 274.821 485.899 268.953L485.899 268.953ZM645.457 545.754C622.663 544.293 600.066 542.199 577.271 540.105C567.434 539.276 557.815 538.229 547.999 537.16C541.717 536.331 536.7 542.613 539.012 548.677C542.568 558.1 545.905 567.545 549.264 577.186C556.593 598.562 564.119 620.135 571.011 641.926L573.302 649.473C609.685 624.541 637.932 588.507 652.765 546.169L645.457 545.754L645.457 545.754ZM634.377 367.219L628.727 373.305C613.044 390.078 596.947 406.198 580.827 422.339C570.575 432.809 559.494 442.865 548.828 453.138C563.05 456.694 577.272 460.467 591.493 464.655C613.459 470.937 635.206 477.023 656.953 484.134L664.696 486.642C664.914 483.283 664.914 479.728 664.914 476.172C664.914 436.168 653.834 398.869 634.377 367.219L634.377 367.219ZM634.377 367.219L628.727 373.305C613.044 390.078 596.947 406.198 580.827 422.339C570.575 432.809 559.494 442.865 548.828 453.138C563.05 456.694 577.272 460.467 591.493 464.655C613.459 470.937 635.206 477.023 656.953 484.134L664.696 486.642C664.914 483.283 664.914 479.728 664.914 476.172C664.914 436.168 653.834 398.869 634.377 367.219L634.377 367.219ZM577.271 540.105C567.434 539.276 557.815 538.229 547.999 537.16C541.717 536.331 536.7 542.613 539.012 548.677C542.568 558.1 545.905 567.545 549.264 577.186C556.593 598.562 564.119 620.135 571.011 641.926L573.302 649.473C609.685 624.541 637.932 588.507 652.765 546.169L645.436 545.754C622.663 544.293 600.087 542.199 577.271 540.105L577.271 540.105ZM595.9 320.715C565.995 293.471 527.932 274.821 485.899 268.953L486.946 277.133C489.869 299.753 491.963 322.612 494.057 345.232C494.886 354.24 495.737 363.053 496.347 372.061C496.762 378.976 504.505 382.531 510.155 378.561C517.266 373.326 524.595 368.091 532.12 363.053C550.944 350.271 569.55 337.488 588.789 325.121L595.9 320.715L595.9 320.715ZM479.399 609.032C474.382 600.438 469.562 591.844 464.959 583.054C461.622 576.968 453.028 576.968 449.69 583.054C444.87 592.062 439.853 600.874 434.64 609.447C423.144 629.143 411.627 648.84 399.5 668.122L394.265 676.498C413.721 682.584 434.422 685.725 455.754 685.725C477.719 685.725 499.052 682.366 518.923 675.866L514.103 667.904C501.997 648.644 490.698 628.729 479.399 609.032L479.399 609.032ZM367.304 534.237C357.467 535.502 347.848 536.964 338.032 538.011C315.238 540.737 292.858 543.464 270.064 545.558L258.766 546.605C274.034 589.357 302.892 625.806 339.908 650.541L342.831 641.729C349.942 619.938 357.467 598.562 365.211 576.99C368.766 566.52 372.54 556.246 376.509 545.776C379.018 539.668 373.783 533.19 367.304 534.237L367.304 534.237ZM352.254 453.335C358.732 451.459 360.63 443.279 355.591 438.677C348.48 432.177 341.588 425.676 334.673 418.762C318.357 402.621 302.26 386.697 286.358 370.142L279.662 363.227C258.744 395.706 246.616 434.467 246.616 476.172C246.616 480.164 246.834 483.916 246.834 487.689L256.672 484.33C278.222 476.587 299.969 469.869 321.498 462.758C331.75 459.42 342.002 456.497 352.254 453.335L352.254 453.335ZM910.239 549.113L830.34 197.496C826.785 181.791 816.337 168.791 801.897 161.658L478.57 5.34952C464.13 -1.78317 447.4 -1.78317 432.982 5.34952L109.655 161.658C95.2154 168.791 84.7672 181.769 81.2118 197.496L1.31259 549.113C-2.24285 564.818 1.53071 581.178 11.3463 593.545L235.121 875.581C245.155 888.145 260.423 895.496 276.325 895.496L635.206 895.496C651.107 895.496 666.376 888.167 676.409 875.581L900.184 593.545C910.021 581.156 913.795 564.818 910.239 549.113L910.239 549.113ZM798.56 563.771C792.278 565.233 786.017 563.771 781 560.63C770.749 553.716 759.886 549.942 749.002 546.801C743.57 545.34 737.921 544.075 732.489 543.246C727.058 541.566 720.776 543.246 714.494 546.169C708.212 549.724 702.563 549.113 696.717 548.677L696.084 548.677C678.089 608.4 638.565 658.896 586.28 690.96L586.28 691.178C587.96 696.631 589.836 701.866 588.156 708.999C586.695 715.914 586.477 722.196 589.421 727.234C591.712 732.273 594.242 737.508 596.947 742.329C602.596 752.166 608.878 762.025 618.061 770.205C627.266 778.799 627.899 793.043 619.523 802.466C610.95 811.692 596.729 812.303 587.306 803.927C582.485 799.521 579.976 793.653 579.976 787.59C579.562 775.222 576.421 764.337 572.648 753.431C570.772 748.196 568.678 742.961 566.169 737.726C564.293 732.273 559.276 728.499 553.191 724.944C547.345 721.803 544.4 717.397 541.477 712.576C514.714 722.435 485.856 727.671 455.733 727.671C426.046 727.671 397.602 722.435 371.231 713.013C368.722 717.615 365.8 721.803 359.932 724.966C353.868 728.325 348.851 732.295 346.975 737.748C344.467 742.787 342.155 748.022 340.279 753.257C336.505 764.163 333.168 775.047 332.95 787.415C332.536 799.979 321.869 809.838 309.327 809.424C296.785 809.009 286.947 798.539 287.362 785.953C287.58 779.453 290.503 773.804 294.887 769.812C304.092 761.436 310.374 751.795 316.22 742.154C318.946 737.115 321.455 732.098 323.745 726.863C326.668 722.043 326.472 715.543 325.206 708.628C323.745 702.128 325.206 696.893 326.886 692.072C274.383 660.422 234.227 610.145 215.839 550.422C211.018 550.836 206.437 550.836 200.984 548.11C194.506 545.383 188.442 543.704 182.989 545.602C177.34 546.648 171.908 548.11 166.477 549.789C155.593 553.345 144.926 557.337 134.892 564.448C124.641 571.776 110.419 569.268 103.112 558.994C96.0008 548.721 98.2911 534.477 108.543 527.344C113.778 523.571 120.256 522.306 126.102 523.353C138.033 525.861 149.529 525.032 160.827 523.571C166.477 522.938 172.126 521.891 177.558 520.43C183.207 520.015 188.224 515.827 192.826 510.592C196.796 505.99 201.399 504.092 206.001 502.413C205.172 493.819 204.736 485.028 204.736 476.216C204.736 422.579 221.466 372.912 250.128 332.057C246.354 328.283 242.799 324.51 241.337 317.814C239.462 311.117 236.953 305.25 232.133 302.109C227.748 298.335 223.342 294.976 218.74 291.835C209.12 285.553 199.283 279.685 187.57 276.13C175.442 272.771 168.331 259.989 171.886 248.057C175.442 235.908 187.984 228.993 200.112 232.352C206.176 234.228 211.193 238.438 213.919 243.673C219.569 254.579 227.312 263.151 235.47 271.113C239.44 275.105 243.846 278.856 248.23 282.215C252.2 286.403 258.482 287.669 265.375 288.083C272.704 288.301 277.284 291.442 282.105 294.583L282.323 294.801C321.651 256.673 373.499 231.523 431.019 226.07C431.651 220.421 432.066 214.749 436.45 209.1C440.638 203.451 443.561 197.779 442.929 192.13C443.147 186.48 442.929 180.809 442.514 174.942C441.249 163.621 439.591 152.3 434.771 141.001C429.754 129.484 435.185 116.07 446.702 111.031C458.197 106.21 471.59 111.445 476.607 122.984C479.116 129.07 478.897 135.548 476.607 141.001C471.787 152.322 470.129 163.621 468.864 174.942C468.449 180.809 468.231 186.459 468.449 192.13C467.817 197.779 470.74 203.451 474.928 209.1C479.312 214.749 479.748 220.421 480.359 226.07C539.34 231.72 592.453 257.916 632.196 297.724C637.016 294.583 641.597 291.224 648.926 291.028C655.819 290.613 662.101 289.348 666.071 285.16C670.455 281.605 674.643 277.831 678.831 273.84C686.771 265.878 694.514 257.284 700.163 246.399C705.813 235.079 719.62 230.694 730.701 236.562C742 242.211 746.384 256.041 740.538 267.165C737.616 273.032 732.599 277.024 726.731 278.682C715.018 282.041 705.18 288.105 695.779 294.387C691.177 297.746 686.574 301.083 682.386 304.857C677.566 307.998 675.057 313.865 673.182 320.562C671.72 327.695 667.75 331.664 663.78 335.852C690.959 375.878 706.664 424.28 706.664 476.238C706.664 484.199 706.249 492.161 705.617 499.926L705.835 499.926C711.266 501.606 716.719 503.067 721.518 508.717C726.339 513.755 731.355 517.507 737.005 517.943C742.654 519.208 748.086 520.037 753.735 520.67C765.23 521.717 776.529 522.131 788.657 519.405C801.003 516.678 813.13 524.443 815.835 536.789C818.627 548.895 810.884 561.045 798.56 563.771L798.56 563.771ZM628.727 373.305C613.044 390.079 596.946 406.198 580.827 422.339C570.575 432.809 559.494 442.865 548.828 453.138C563.05 456.694 577.272 460.467 591.493 464.655C613.459 470.937 635.206 477.023 656.953 484.134L664.696 486.642C664.914 483.283 664.914 479.728 664.914 476.172C664.914 436.147 653.833 398.847 634.377 367.219L628.727 373.305L628.727 373.305ZM577.271 540.105C567.434 539.276 557.815 538.229 547.999 537.16C541.717 536.331 536.7 542.613 539.012 548.677C542.568 558.1 545.905 567.545 549.264 577.186C556.593 598.562 564.119 620.135 571.011 641.926L573.302 649.473C609.685 624.541 637.932 588.507 652.765 546.169L645.436 545.754C622.663 544.293 600.087 542.199 577.271 540.105L577.271 540.105ZM595.9 320.715C565.995 293.471 527.932 274.821 485.899 268.953L486.946 277.133C489.869 299.753 491.963 322.612 494.057 345.232C494.886 354.24 495.737 363.053 496.347 372.061C496.762 378.976 504.505 382.531 510.155 378.561C517.266 373.326 524.595 368.091 532.12 363.053C550.944 350.271 569.55 337.488 588.789 325.121L595.9 320.715L595.9 320.715ZM479.399 609.032C474.382 600.438 469.562 591.844 464.959 583.054C461.622 576.968 453.028 576.968 449.69 583.054C444.87 592.062 439.853 600.874 434.64 609.447C423.144 629.143 411.627 648.84 399.5 668.122L394.265 676.498C413.721 682.584 434.422 685.725 455.754 685.725C477.719 685.725 499.052 682.366 518.923 675.866L514.103 667.904C501.997 648.644 490.698 628.729 479.399 609.032L479.399 609.032ZM417.495 345.232C419.589 322.59 421.683 299.753 424.606 277.133L425.653 268.953C385.3 274.603 348.698 292.009 319.404 317.574L325.883 321.565C345.339 333.715 364.163 346.497 382.988 359.279C393.872 366.194 404.102 373.937 414.354 381.288C415.205 369.313 416.252 357.163 417.495 345.232L417.495 345.232ZM367.304 534.237C357.467 535.502 347.848 536.964 338.032 538.011C315.238 540.737 292.858 543.464 270.064 545.558L258.766 546.605C274.034 589.357 302.892 625.806 339.908 650.541L342.831 641.729C349.942 619.938 357.467 598.562 365.211 576.99C368.766 566.52 372.54 556.246 376.509 545.776C379.018 539.668 373.783 533.19 367.304 534.237L367.304 534.237ZM352.254 453.335C358.732 451.459 360.63 443.279 355.591 438.677C348.48 432.177 341.588 425.676 334.673 418.762C318.357 402.621 302.26 386.697 286.358 370.142L279.662 363.227C258.744 395.706 246.616 434.467 246.616 476.172C246.616 480.164 246.834 483.916 246.834 487.689L256.672 484.33C278.222 476.587 299.969 469.869 321.498 462.758C331.75 459.42 342.002 456.497 352.254 453.335L352.254 453.335ZM355.591 438.677C348.48 432.177 341.588 425.676 334.673 418.762C318.357 402.621 302.26 386.697 286.358 370.142L279.662 363.227C258.744 395.706 246.616 434.467 246.616 476.172C246.616 480.164 246.834 483.916 246.834 487.689L256.672 484.33C278.222 476.587 299.969 469.869 321.498 462.758C331.75 459.399 342.002 456.476 352.232 453.335C358.732 451.459 360.608 443.279 355.591 438.677L355.591 438.677ZM367.304 534.237C357.467 535.502 347.848 536.964 338.032 538.011C315.238 540.737 292.858 543.464 270.064 545.558L258.766 546.605C274.034 589.357 302.892 625.806 339.908 650.541L342.831 641.729C349.942 619.938 357.467 598.562 365.211 576.99C368.766 566.52 372.54 556.246 376.509 545.776C379.018 539.668 373.783 533.19 367.304 534.237L367.304 534.237ZM514.125 667.904C501.997 648.622 490.698 628.729 479.399 609.032C474.382 600.438 469.562 591.844 464.959 583.054C461.622 576.968 453.028 576.968 449.69 583.054C444.87 592.062 439.853 600.874 434.64 609.447C423.144 629.143 411.627 648.84 399.5 668.122L394.265 676.498C413.721 682.584 434.422 685.725 455.754 685.725C477.719 685.725 499.052 682.366 518.923 675.866L514.125 667.904L514.125 667.904ZM485.899 268.953L486.946 277.133C489.869 299.753 491.963 322.612 494.057 345.232C494.886 354.24 495.737 363.053 496.347 372.061C496.762 378.976 504.505 382.531 510.155 378.561C517.266 373.326 524.595 368.091 532.12 363.053C550.944 350.27 569.55 337.488 588.789 325.121L595.9 320.715C565.995 293.471 527.932 274.821 485.899 268.953L485.899 268.953ZM645.457 545.754C622.663 544.293 600.066 542.199 577.271 540.105C567.434 539.276 557.815 538.229 547.999 537.16C541.717 536.331 536.7 542.613 539.012 548.677C542.568 558.1 545.905 567.545 549.264 577.186C556.593 598.562 564.119 620.135 571.011 641.926L573.302 649.473C609.685 624.541 637.932 588.507 652.765 546.169L645.457 545.754L645.457 545.754ZM634.377 367.219L628.727 373.305C613.044 390.078 596.947 406.198 580.827 422.339C570.575 432.809 559.494 442.865 548.828 453.138C563.05 456.694 577.272 460.467 591.493 464.655C613.459 470.937 635.206 477.023 656.953 484.134L664.696 486.642C664.914 483.283 664.914 479.728 664.914 476.172C664.914 436.168 653.834 398.869 634.377 367.219L634.377 367.219ZM634.377 367.219L628.727 373.305C613.044 390.078 596.947 406.198 580.827 422.339C570.575 432.809 559.494 442.865 548.828 453.138C563.05 456.694 577.272 460.467 591.493 464.655C613.459 470.937 635.206 477.023 656.953 484.134L664.696 486.642C664.914 483.283 664.914 479.728 664.914 476.172C664.914 436.168 653.834 398.869 634.377 367.219L634.377 367.219ZM645.457 545.754C622.663 544.293 600.066 542.199 577.271 540.105C567.434 539.276 557.815 538.229 547.999 537.16C541.717 536.331 536.7 542.613 539.012 548.677C542.568 558.1 545.905 567.545 549.264 577.186C556.593 598.562 564.119 620.135 571.011 641.926L573.302 649.473C609.685 624.541 637.932 588.507 652.765 546.169L645.457 545.754L645.457 545.754ZM485.899 268.953L486.946 277.133C489.869 299.753 491.963 322.612 494.057 345.232C494.886 354.24 495.737 363.053 496.347 372.061C496.762 378.976 504.505 382.531 510.155 378.561C517.266 373.326 524.595 368.091 532.12 363.053C550.944 350.27 569.55 337.488 588.789 325.121L595.9 320.715C565.995 293.471 527.932 274.821 485.899 268.953L485.899 268.953ZM514.125 667.904C501.997 648.622 490.698 628.729 479.399 609.032C474.382 600.438 469.562 591.844 464.959 583.054C461.622 576.968 453.028 576.968 449.69 583.054C444.87 592.062 439.853 600.874 434.64 609.447C423.144 629.143 411.627 648.84 399.5 668.122L394.265 676.498C413.721 682.584 434.422 685.725 455.754 685.725C477.719 685.725 499.052 682.366 518.923 675.866L514.125 667.904L514.125 667.904ZM367.304 534.237C357.467 535.502 347.848 536.964 338.032 538.011C315.238 540.737 292.858 543.464 270.064 545.558L258.766 546.605C274.034 589.357 302.892 625.806 339.908 650.541L342.831 641.729C349.942 619.938 357.467 598.562 365.211 576.99C368.766 566.52 372.54 556.246 376.509 545.776C379.018 539.668 373.783 533.19 367.304 534.237L367.304 534.237ZM355.591 438.677C348.48 432.177 341.588 425.676 334.673 418.762C318.357 402.621 302.26 386.697 286.358 370.142L279.662 363.227C258.744 395.706 246.616 434.467 246.616 476.172C246.616 480.164 246.834 483.916 246.834 487.689L256.672 484.33C278.222 476.587 299.969 469.869 321.498 462.758C331.75 459.399 342.002 456.476 352.232 453.335C358.732 451.459 360.608 443.279 355.591 438.677L355.591 438.677ZM367.304 534.237C357.467 535.502 347.848 536.964 338.032 538.011C315.238 540.737 292.858 543.464 270.064 545.558L258.766 546.605C274.034 589.357 302.892 625.806 339.908 650.541L342.831 641.729C349.942 619.938 357.467 598.562 365.211 576.99C368.766 566.52 372.54 556.246 376.509 545.776C379.018 539.668 373.783 533.19 367.304 534.237L367.304 534.237ZM514.125 667.904C501.997 648.622 490.698 628.729 479.399 609.032C474.382 600.438 469.562 591.844 464.959 583.054C461.622 576.968 453.028 576.968 449.69 583.054C444.87 592.062 439.853 600.874 434.64 609.447C423.144 629.143 411.627 648.84 399.5 668.122L394.265 676.498C413.721 682.584 434.422 685.725 455.754 685.725C477.719 685.725 499.052 682.366 518.923 675.866L514.125 667.904L514.125 667.904ZM485.899 268.953L486.946 277.133C489.869 299.753 491.963 322.612 494.057 345.232C494.886 354.24 495.737 363.053 496.347 372.061C496.762 378.976 504.505 382.531 510.155 378.561C517.266 373.326 524.595 368.091 532.12 363.053C550.944 350.27 569.55 337.488 588.789 325.121L595.9 320.715C565.995 293.471 527.932 274.821 485.899 268.953L485.899 268.953ZM645.457 545.754C622.663 544.293 600.066 542.199 577.271 540.105C567.434 539.276 557.815 538.229 547.999 537.16C541.717 536.331 536.7 542.613 539.012 548.677C542.568 558.1 545.905 567.545 549.264 577.186C556.593 598.562 564.119 620.135 571.011 641.926L573.302 649.473C609.685 624.541 637.932 588.507 652.765 546.169L645.457 545.754L645.457 545.754ZM634.377 367.219L628.727 373.305C613.044 390.078 596.947 406.198 580.827 422.339C570.575 432.809 559.494 442.865 548.828 453.138C563.05 456.694 577.272 460.467 591.493 464.655C613.459 470.937 635.206 477.023 656.953 484.134L664.696 486.642C664.914 483.283 664.914 479.728 664.914 476.172C664.914 436.168 653.834 398.869 634.377 367.219L634.377 367.219ZM634.377 367.219L628.727 373.305C613.044 390.078 596.947 406.198 580.827 422.339C570.575 432.809 559.494 442.865 548.828 453.138C563.05 456.694 577.272 460.467 591.493 464.655C613.459 470.937 635.206 477.023 656.953 484.134L664.696 486.642C664.914 483.283 664.914 479.728 664.914 476.172C664.914 436.168 653.834 398.869 634.377 367.219L634.377 367.219ZM645.457 545.754C622.663 544.293 600.066 542.199 577.271 540.105C567.434 539.276 557.815 538.229 547.999 537.16C541.717 536.331 536.7 542.613 539.012 548.677C542.568 558.1 545.905 567.545 549.264 577.186C556.593 598.562 564.119 620.135 571.011 641.926L573.302 649.473C609.685 624.541 637.932 588.507 652.765 546.169L645.457 545.754L645.457 545.754ZM485.899 268.953L486.946 277.133C489.869 299.753 491.963 322.612 494.057 345.232C494.886 354.24 495.737 363.053 496.347 372.061C496.762 378.976 504.505 382.531 510.155 378.561C517.266 373.326 524.595 368.091 532.12 363.053C550.944 350.27 569.55 337.488 588.789 325.121L595.9 320.715C565.995 293.471 527.932 274.821 485.899 268.953L485.899 268.953ZM514.125 667.904C501.997 648.622 490.698 628.729 479.399 609.032C474.382 600.438 469.562 591.844 464.959 583.054C461.622 576.968 453.028 576.968 449.69 583.054C444.87 592.062 439.853 600.874 434.64 609.447C423.144 629.143 411.627 648.84 399.5 668.122L394.265 676.498C413.721 682.584 434.422 685.725 455.754 685.725C477.719 685.725 499.052 682.366 518.923 675.866L514.125 667.904L514.125 667.904ZM367.304 534.237C357.467 535.502 347.848 536.964 338.032 538.011C315.238 540.737 292.858 543.464 270.064 545.558L258.766 546.605C274.034 589.357 302.892 625.806 339.908 650.541L342.831 641.729C349.942 619.938 357.467 598.562 365.211 576.99C368.766 566.52 372.54 556.246 376.509 545.776C379.018 539.668 373.783 533.19 367.304 534.237L367.304 534.237ZM514.125 667.904C501.997 648.622 490.698 628.729 479.399 609.032C474.382 600.438 469.562 591.844 464.959 583.054C461.622 576.968 453.028 576.968 449.69 583.054C444.87 592.062 439.853 600.874 434.64 609.447C423.144 629.143 411.627 648.84 399.5 668.122L394.265 676.498C413.721 682.584 434.422 685.725 455.754 685.725C477.719 685.725 499.052 682.366 518.923 675.866L514.125 667.904L514.125 667.904ZM485.899 268.953L486.946 277.133C489.869 299.753 491.963 322.612 494.057 345.232C494.886 354.24 495.737 363.053 496.347 372.061C496.762 378.976 504.505 382.531 510.155 378.561C517.266 373.326 524.595 368.091 532.12 363.053C550.944 350.27 569.55 337.488 588.789 325.121L595.9 320.715C565.995 293.471 527.932 274.821 485.899 268.953L485.899 268.953ZM645.457 545.754C622.663 544.293 600.066 542.199 577.271 540.105C567.434 539.276 557.815 538.229 547.999 537.16C541.717 536.331 536.7 542.613 539.012 548.677C542.568 558.1 545.905 567.545 549.264 577.186C556.593 598.562 564.119 620.135 571.011 641.926L573.302 649.473C609.685 624.541 637.932 588.507 652.765 546.169L645.457 545.754L645.457 545.754ZM634.377 367.219L628.727 373.305C613.044 390.078 596.947 406.198 580.827 422.339C570.575 432.809 559.494 442.865 548.828 453.138C563.05 456.694 577.272 460.467 591.493 464.655C613.459 470.937 635.206 477.023 656.953 484.134L664.696 486.642C664.914 483.283 664.914 479.728 664.914 476.172C664.914 436.168 653.834 398.869 634.377 367.219L634.377 367.219ZM634.377 367.219L628.727 373.305C613.044 390.078 596.947 406.198 580.827 422.339C570.575 432.809 559.494 442.865 548.828 453.138C563.05 456.694 577.272 460.467 591.493 464.655C613.459 470.937 635.206 477.023 656.953 484.134L664.696 486.642C664.914 483.283 664.914 479.728 664.914 476.172C664.914 436.168 653.834 398.869 634.377 367.219L634.377 367.219ZM645.457 545.754C622.663 544.293 600.066 542.199 577.271 540.105C567.434 539.276 557.815 538.229 547.999 537.16C541.717 536.331 536.7 542.613 539.012 548.677C542.568 558.1 545.905 567.545 549.264 577.186C556.593 598.562 564.119 620.135 571.011 641.926L573.302 649.473C609.685 624.541 637.932 588.507 652.765 546.169L645.457 545.754L645.457 545.754ZM485.899 268.953L486.946 277.133C489.869 299.753 491.963 322.612 494.057 345.232C494.886 354.24 495.737 363.053 496.347 372.061C496.762 378.976 504.505 382.531 510.155 378.561C517.266 373.326 524.595 368.091 532.12 363.053C550.944 350.27 569.55 337.488 588.789 325.121L595.9 320.715C565.995 293.471 527.932 274.821 485.899 268.953L485.899 268.953ZM514.125 667.904C501.997 648.622 490.698 628.729 479.399 609.032C474.382 600.438 469.562 591.844 464.959 583.054C461.622 576.968 453.028 576.968 449.69 583.054C444.87 592.062 439.853 600.874 434.64 609.447C423.144 629.143 411.627 648.84 399.5 668.122L394.265 676.498C413.721 682.584 434.422 685.725 455.754 685.725C477.719 685.725 499.052 682.366 518.923 675.866L514.125 667.904L514.125 667.904ZM514.125 667.904C501.997 648.622 490.698 628.729 479.399 609.032C474.382 600.438 469.562 591.844 464.959 583.054C461.622 576.968 453.028 576.968 449.69 583.054C444.87 592.062 439.853 600.874 434.64 609.447C423.144 629.143 411.627 648.84 399.5 668.122L394.265 676.498C413.721 682.584 434.422 685.725 455.754 685.725C477.719 685.725 499.052 682.366 518.923 675.866L514.125 667.904L514.125 667.904ZM485.899 268.953L486.946 277.133C489.869 299.753 491.963 322.612 494.057 345.232C494.886 354.24 495.737 363.053 496.347 372.061C496.762 378.976 504.505 382.531 510.155 378.561C517.266 373.326 524.595 368.091 532.12 363.053C550.944 350.27 569.55 337.488 588.789 325.121L595.9 320.715C565.995 293.471 527.932 274.821 485.899 268.953L485.899 268.953ZM645.457 545.754C622.663 544.293 600.066 542.199 577.271 540.105C567.434 539.276 557.815 538.229 547.999 537.16C541.717 536.331 536.7 542.613 539.012 548.677C542.568 558.1 545.905 567.545 549.264 577.186C556.593 598.562 564.119 620.135 571.011 641.926L573.302 649.473C609.685 624.541 637.932 588.507 652.765 546.169L645.457 545.754L645.457 545.754ZM634.377 367.219L628.727 373.305C613.044 390.078 596.947 406.198 580.827 422.339C570.575 432.809 559.494 442.865 548.828 453.138C563.05 456.694 577.272 460.467 591.493 464.655C613.459 470.937 635.206 477.023 656.953 484.134L664.696 486.642C664.914 483.283 664.914 479.728 664.914 476.172C664.914 436.168 653.834 398.869 634.377 367.219L634.377 367.219ZM634.377 367.219L628.727 373.305C613.044 390.078 596.947 406.198 580.827 422.339C570.575 432.809 559.494 442.865 548.828 453.138C563.05 456.694 577.272 460.467 591.493 464.655C613.459 470.937 635.206 477.023 656.953 484.134L664.696 486.642C664.914 483.283 664.914 479.728 664.914 476.172C664.914 436.168 653.834 398.869 634.377 367.219L634.377 367.219ZM645.457 545.754C622.663 544.293 600.066 542.199 577.271 540.105C567.434 539.276 557.815 538.229 547.999 537.16C541.717 536.331 536.7 542.613 539.012 548.677C542.568 558.1 545.905 567.545 549.264 577.186C556.593 598.562 564.119 620.135 571.011 641.926L573.302 649.473C609.685 624.541 637.932 588.507 652.765 546.169L645.457 545.754L645.457 545.754ZM485.899 268.953L486.946 277.133C489.869 299.753 491.963 322.612 494.057 345.232C494.886 354.24 495.737 363.053 496.347 372.061C496.762 378.976 504.505 382.531 510.155 378.561C517.266 373.326 524.595 368.091 532.12 363.053C550.944 350.27 569.55 337.488 588.789 325.121L595.9 320.715C565.995 293.471 527.932 274.821 485.899 268.953L485.899 268.953ZM514.125 667.904C501.997 648.622 490.698 628.729 479.399 609.032C474.382 600.438 469.562 591.844 464.959 583.054C461.622 576.968 453.028 576.968 449.69 583.054C444.87 592.062 439.853 600.874 434.64 609.447C423.144 629.143 411.627 648.84 399.5 668.122L394.265 676.498C413.721 682.584 434.422 685.725 455.754 685.725C477.719 685.725 499.052 682.366 518.923 675.866L514.125 667.904L514.125 667.904ZM485.899 268.953L486.946 277.133C489.869 299.753 491.963 322.612 494.057 345.232C494.886 354.24 495.737 363.053 496.347 372.061C496.762 378.976 504.505 382.531 510.155 378.561C517.266 373.326 524.595 368.091 532.12 363.053C550.944 350.27 569.55 337.488 588.789 325.121L595.9 320.715C565.995 293.471 527.932 274.821 485.899 268.953L485.899 268.953ZM645.457 545.754C622.663 544.293 600.066 542.199 577.271 540.105C567.434 539.276 557.815 538.229 547.999 537.16C541.717 536.331 536.7 542.613 539.012 548.677C542.568 558.1 545.905 567.545 549.264 577.186C556.593 598.562 564.119 620.135 571.011 641.926L573.302 649.473C609.685 624.541 637.932 588.507 652.765 546.169L645.457 545.754L645.457 545.754ZM634.377 367.219L628.727 373.305C613.044 390.078 596.947 406.198 580.827 422.339C570.575 432.809 559.494 442.865 548.828 453.138C563.05 456.694 577.272 460.467 591.493 464.655C613.459 470.937 635.206 477.023 656.953 484.134L664.696 486.642C664.914 483.283 664.914 479.728 664.914 476.172C664.914 436.168 653.834 398.869 634.377 367.219L634.377 367.219ZM634.377 367.219L628.727 373.305C613.044 390.078 596.947 406.198 580.827 422.339C570.575 432.809 559.494 442.865 548.828 453.138C563.05 456.694 577.272 460.467 591.493 464.655C613.459 470.937 635.206 477.023 656.953 484.134L664.696 486.642C664.914 483.283 664.914 479.728 664.914 476.172C664.914 436.168 653.834 398.869 634.377 367.219L634.377 367.219ZM645.457 545.754C622.663 544.293 600.066 542.199 577.271 540.105C567.434 539.276 557.815 538.229 547.999 537.16C541.717 536.331 536.7 542.613 539.012 548.677C542.568 558.1 545.905 567.545 549.264 577.186C556.593 598.562 564.119 620.135 571.011 641.926L573.302 649.473C609.685 624.541 637.932 588.507 652.765 546.169L645.457 545.754L645.457 545.754ZM485.899 268.953L486.946 277.133C489.869 299.753 491.963 322.612 494.057 345.232C494.886 354.24 495.737 363.053 496.347 372.061C496.762 378.976 504.505 382.531 510.155 378.561C517.266 373.326 524.595 368.091 532.12 363.053C550.944 350.27 569.55 337.488 588.789 325.121L595.9 320.715C565.995 293.471 527.932 274.821 485.899 268.953L485.899 268.953ZM485.899 268.953L486.946 277.133C489.869 299.753 491.963 322.612 494.057 345.232C494.886 354.24 495.737 363.053 496.347 372.061C496.762 378.976 504.505 382.531 510.155 378.561C517.266 373.326 524.595 368.091 532.12 363.053C550.944 350.27 569.55 337.488 588.789 325.121L595.9 320.715C565.995 293.471 527.932 274.821 485.899 268.953L485.899 268.953ZM634.377 367.219L628.727 373.305C613.044 390.078 596.947 406.198 580.827 422.339C570.575 432.809 559.494 442.865 548.828 453.138C563.05 456.694 577.272 460.467 591.493 464.655C613.459 470.937 635.206 477.023 656.953 484.134L664.696 486.642C664.914 483.283 664.914 479.728 664.914 476.172C664.914 436.168 653.834 398.869 634.377 367.219L634.377 367.219ZM634.377 367.219L628.727 373.305C613.044 390.078 596.947 406.198 580.827 422.339C570.575 432.809 559.494 442.865 548.828 453.138C563.05 456.694 577.272 460.467 591.493 464.655C613.459 470.937 635.206 477.023 656.953 484.134L664.696 486.642C664.914 483.283 664.914 479.728 664.914 476.172C664.914 436.168 653.834 398.869 634.377 367.219L634.377 367.219ZM485.899 268.953L486.946 277.133C489.869 299.753 491.963 322.612 494.057 345.232C494.886 354.24 495.737 363.053 496.347 372.061C496.762 378.976 504.505 382.531 510.155 378.561C517.266 373.326 524.595 368.091 532.12 363.053C550.944 350.27 569.55 337.488 588.789 325.121L595.9 320.715C565.995 293.471 527.932 274.821 485.899 268.953L485.899 268.953ZM485.899 268.953L486.946 277.133C489.869 299.753 491.963 322.612 494.057 345.232C494.886 354.24 495.737 363.053 496.347 372.061C496.762 378.976 504.505 382.531 510.155 378.561C517.266 373.326 524.595 368.091 532.12 363.053C550.944 350.27 569.55 337.488 588.789 325.121L595.9 320.715C565.995 293.471 527.932 274.821 485.899 268.953L485.899 268.953ZM634.377 367.219L628.727 373.305C613.044 390.078 596.947 406.198 580.827 422.339C570.575 432.809 559.494 442.865 548.828 453.138C563.05 456.694 577.272 460.467 591.493 464.655C613.459 470.937 635.206 477.023 656.953 484.134L664.696 486.642C664.914 483.283 664.914 479.728 664.914 476.172C664.914 436.168 653.834 398.869 634.377 367.219L634.377 367.219ZM634.377 367.219L628.727 373.305C613.044 390.078 596.947 406.198 580.827 422.339C570.575 432.809 559.494 442.865 548.828 453.138C563.05 456.694 577.272 460.467 591.493 464.655C613.459 470.937 635.206 477.023 656.953 484.134L664.696 486.642C664.914 483.283 664.914 479.728 664.914 476.172C664.914 436.168 653.834 398.869 634.377 367.219L634.377 367.219ZM485.899 268.953L486.946 277.133C489.869 299.753 491.963 322.612 494.057 345.232C494.886 354.24 495.737 363.053 496.347 372.061C496.762 378.976 504.505 382.531 510.155 378.561C517.266 373.326 524.595 368.091 532.12 363.053C550.944 350.27 569.55 337.488 588.789 325.121L595.9 320.715C565.995 293.471 527.932 274.821 485.899 268.953L485.899 268.953ZM485.899 268.953L486.946 277.133C489.869 299.753 491.963 322.612 494.057 345.232C494.886 354.24 495.737 363.053 496.347 372.061C496.762 378.976 504.505 382.531 510.155 378.561C517.266 373.326 524.595 368.091 532.12 363.053C550.944 350.27 569.55 337.488 588.789 325.121L595.9 320.715C565.995 293.471 527.932 274.821 485.899 268.953L485.899 268.953ZM485.899 268.953L486.946 277.133C489.869 299.753 491.963 322.612 494.057 345.232C494.886 354.24 495.737 363.053 496.347 372.061C496.762 378.976 504.505 382.531 510.155 378.561C517.266 373.326 524.595 368.091 532.12 363.053C550.944 350.27 569.55 337.488 588.789 325.121L595.9 320.715C565.995 293.471 527.932 274.821 485.899 268.953L485.899 268.953Z" transform="translate(66.219055 65.43216)" id="Shape" fill="#0277BD" fill-rule="evenodd" stroke="none" />
      <path d="M116.842 48.0093C112.022 48.4237 107.441 48.4237 101.988 45.6972C95.5097 42.9706 89.4459 41.291 83.9927 43.1887C78.3433 44.2357 72.912 45.6972 67.4807 47.3767C56.5962 50.9321 45.9299 54.9238 35.8962 62.0347C25.6443 69.3637 11.4226 66.8553 4.11537 56.5816C-2.99551 46.3079 -0.705199 32.0643 9.54667 24.9317C14.7817 21.1581 21.26 19.893 27.1057 20.94C39.0372 23.4484 50.5324 22.6195 61.8312 21.1581C67.4807 20.5256 73.1301 19.4785 78.5614 18.0171C84.2109 17.6027 89.2277 13.4147 93.8302 8.17968C97.8001 3.57724 102.402 1.67955 107.005 0C108.903 16.3812 112.044 32.5006 116.842 48.0093L116.842 48.0093Z" transform="translate(165.25854 567.77936)" id="Shape" fill="none" fill-rule="evenodd" stroke="none" />
      <path d="M83.8817 20.9401C81.3733 25.5425 78.4504 29.7305 72.5828 32.8934C66.5189 36.2525 61.5021 40.2223 59.6262 45.6755C57.1178 50.7141 54.8056 55.9492 52.9298 61.1841C49.1562 72.0904 45.8189 82.9749 45.6008 95.3426C45.1864 107.907 34.52 117.766 21.9778 117.351C9.43563 116.937 -0.40177 106.467 0.0126476 93.8811C0.230778 87.381 3.15363 81.7316 7.53794 77.7398C16.7428 69.3638 23.0248 59.7227 28.8706 50.0815C31.5971 45.0428 34.1056 40.026 36.3959 34.7909C39.3188 29.9703 39.1224 23.4702 37.8573 16.5557C36.3959 10.0555 37.8573 4.82058 39.5369 0C53.5623 8.37607 68.4166 15.487 83.8817 20.9401L83.8817 20.9401Z" transform="translate(353.61172 757.4608)" id="Shape" fill="none" fill-rule="evenodd" stroke="none" />
      <path d="M78.0452 111.462C69.4728 120.689 55.2511 121.299 45.8281 112.923C41.0075 108.517 38.4991 102.65 38.4991 96.5857C38.0847 84.218 34.9437 73.3336 31.1701 62.4274C29.2942 57.1923 27.2002 51.9574 24.6917 46.7223C22.8159 41.2692 17.799 37.4956 11.7133 33.9402C5.86758 30.7992 2.92289 26.3931 0 21.5725C15.6832 15.9231 30.7338 8.57226 44.7593 0L44.7593 0.218088C46.4388 5.67121 48.3147 10.9063 46.6351 18.0389C45.1737 24.9535 44.9556 31.2355 47.9003 36.2742C50.1906 41.3128 52.7209 46.5479 55.4256 51.3684C61.075 61.2059 67.357 71.0651 76.5401 79.2448C85.7886 87.7735 86.4212 102.039 78.0452 111.462L78.0452 111.462Z" transform="translate(607.6962 756.41406)" id="Shape" fill="none" fill-rule="evenodd" stroke="none" />
      <path d="M102.475 63.9106C96.1932 65.372 89.9329 63.9106 84.9161 60.7696C74.6641 53.855 63.8016 50.0815 52.9171 46.9405C47.4858 45.479 41.8364 44.2139 36.405 43.385C30.9737 41.7055 24.6918 43.385 18.4097 46.3079C12.1278 49.8633 6.47825 49.2526 0.632548 48.8163L0 48.8163C4.82058 33.1114 7.93972 16.752 9.61936 0L9.83745 0C15.2688 1.67955 20.7219 3.14098 25.5207 8.79042C30.3413 13.8291 35.3581 17.5808 41.0075 18.0171C46.657 19.2822 52.0883 20.1111 57.7377 20.7437C69.2329 21.7907 80.5317 22.2051 92.6596 19.4785C105.005 16.752 117.133 24.5172 119.838 36.8631C122.543 49.0344 114.799 61.184 102.475 63.9106L102.475 63.9106Z" transform="translate(762.3033 565.2928)" id="Shape" fill="none" fill-rule="evenodd" stroke="none" />
    </g>
  </g>
</svg>